<svg width="720" height="480" viewBox="0 0 720 480" fill="none" xmlns="http://www.w3.org/2000/svg">
  <rect width="720" height="480" rx="36" fill="#E0F2FE"/>
  <rect x="48" y="120" width="624" height="288" rx="28" fill="#F8FAFC" stroke="#0EA5E9" stroke-width="4"/>
  <rect x="108" y="168" width="504" height="192" rx="22" fill="#E0F2FE" stroke="#0284C7" stroke-width="4"/>
  <rect x="140" y="204" width="180" height="120" rx="18" fill="white" stroke="#0EA5E9" stroke-width="4"/>
  <path d="M188 236H272" stroke="#0284C7" stroke-width="10" stroke-linecap="round"/>
  <path d="M188 272H272" stroke="#0284C7" stroke-width="10" stroke-linecap="round"/>
  <rect x="380" y="204" width="180" height="120" rx="18" fill="white" stroke="#0EA5E9" stroke-width="4"/>
  <path d="M420 232H520" stroke="#0EA5E9" stroke-width="10" stroke-linecap="round"/>
  <path d="M420 256H520" stroke="#0EA5E9" stroke-width="10" stroke-linecap="round"/>
  <path d="M420 280H520" stroke="#0EA5E9" stroke-width="10" stroke-linecap="round"/>
  <path d="M320 204V324" stroke="#0EA5E9" stroke-width="8" stroke-linecap="round" stroke-linejoin="round"/>
  <circle cx="320" cy="228" r="16" fill="#38BDF8" stroke="#0284C7" stroke-width="6"/>
  <path d="M320 252V276" stroke="#0284C7" stroke-width="8" stroke-linecap="round"/>
  <circle cx="320" cy="300" r="12" fill="#0EA5E9"/>
  <path d="M560 156h48" stroke="#0284C7" stroke-width="12" stroke-linecap="round"/>
  <path d="M584 156v168" stroke="#0284C7" stroke-width="12" stroke-linecap="round"/>
  <rect x="552" y="324" width="64" height="24" rx="12" fill="#0EA5E9"/>
  <path d="M160 336c8.8-32 40-64 68-64h120" stroke="#0EA5E9" stroke-width="10" stroke-linecap="round" stroke-linejoin="round"/>
  <path d="M348 272h72c24 0 48 20 54 44" stroke="#0EA5E9" stroke-width="10" stroke-linecap="round" stroke-linejoin="round"/>
  <path d="M236 120l12-36h224l12 36" stroke="#0284C7" stroke-width="12" stroke-linecap="round" stroke-linejoin="round"/>
  <rect x="276" y="84" width="168" height="24" rx="12" fill="#0EA5E9"/>
</svg>