<svg width="360" height="260" viewBox="0 0 360 260" fill="none" xmlns="http://www.w3.org/2000/svg" role="img" aria-labelledby="title desc">
  <title id="title">איור של קבלן שיפוצים עם תוכניות עבודה</title>
  <desc id="desc">קבלן אוחז תוכניות וגלגלת צבע לצד קיר חלקי, בגוונים תואמים לצבעי המותג.</desc>
  <rect width="360" height="260" rx="28" fill="#F6F2F3"/>
  <path d="M52 182C52 154.386 74.3863 132 102 132H308V202C308 212.493 299.493 221 289 221H71C60.5066 221 52 212.493 52 202V182Z" fill="#E9EFF5"/>
  <path d="M226 56H292C302.493 56 311 64.5066 311 75V145H226V56Z" fill="#D9E9EB"/>
  <rect x="236" y="70" width="60" height="54" rx="8" fill="#FFFFFF"/>
  <rect x="236" y="132" width="60" height="8" rx="4" fill="#8A1538"/>
  <path d="M84 74C84 60.7452 94.7452 50 108 50H154C167.255 50 178 60.7452 178 74V88C178 101.255 167.255 112 154 112H108C94.7452 112 84 101.255 84 88V74Z" fill="#D7E9EE"/>
  <circle cx="126" cy="82" r="18" fill="#8A1538"/>
  <path d="M120 68C120 62.4772 124.477 58 130 58H144" stroke="#F7E7EC" stroke-width="8" stroke-linecap="round"/>
  <rect x="102" y="104" width="48" height="68" rx="18" fill="#1F2B3A"/>
  <path d="M98 142H154" stroke="#F7E7EC" stroke-width="10" stroke-linecap="round"/>
  <path d="M120 172L112 214" stroke="#2F3D4A" stroke-width="16" stroke-linecap="round"/>
  <path d="M134 172L148 214" stroke="#2F3D4A" stroke-width="16" stroke-linecap="round"/>
  <rect x="146" y="120" width="60" height="40" rx="12" fill="#B42452"/>
  <path d="M182 128H206" stroke="#FCE8EE" stroke-width="8" stroke-linecap="round"/>
  <path d="M182 142H214" stroke="#FCE8EE" stroke-width="8" stroke-linecap="round"/>
  <path d="M194 120L216 104" stroke="#8A1538" stroke-width="10" stroke-linecap="round"/>
  <rect x="206" y="148" width="32" height="14" rx="7" fill="#8A1538"/>
  <circle cx="214" cy="196" r="24" fill="#F7E7EC"/>
  <path d="M198 196H230" stroke="#8A1538" stroke-width="10" stroke-linecap="round"/>
  <path d="M204 196L212 168" stroke="#8A1538" stroke-width="8" stroke-linecap="round"/>
  <rect x="74" y="154" width="40" height="18" rx="9" fill="#8A1538"/>
  <path d="M70 190C70 178.954 78.9543 170 90 170H120" stroke="#C0395E" stroke-width="10" stroke-linecap="round"/>
  <path d="M248 182L272 214" stroke="#B42452" stroke-width="10" stroke-linecap="round"/>
  <path d="M234 182L214 214" stroke="#B42452" stroke-width="10" stroke-linecap="round"/>
  <rect x="252" y="184" width="18" height="58" rx="9" fill="#8A1538"/>
  <path d="M264 70H286" stroke="#8A1538" stroke-width="6" stroke-linecap="round"/>
  <path d="M264 86H286" stroke="#8A1538" stroke-width="6" stroke-linecap="round"/>
  <path d="M264 102H286" stroke="#8A1538" stroke-width="6" stroke-linecap="round"/>
</svg>