<svg width="720" height="480" viewBox="0 0 720 480" fill="none" xmlns="http://www.w3.org/2000/svg">
  <rect width="720" height="480" rx="36" fill="#FCE7F3"/>
  <rect x="64" y="96" width="592" height="320" rx="32" fill="#FFF7FB" stroke="#F472B6" stroke-width="4"/>
  <rect x="128" y="144" width="464" height="224" rx="24" fill="#FCE7F3" stroke="#EC4899" stroke-width="4"/>
  <rect x="168" y="176" width="384" height="160" rx="18" fill="white" stroke="#F472B6" stroke-width="4"/>
  <path d="M208 216H512" stroke="#EC4899" stroke-width="10" stroke-linecap="round"/>
  <path d="M208 256H512" stroke="#EC4899" stroke-width="10" stroke-linecap="round" stroke-dasharray="24 18"/>
  <path d="M208 296H512" stroke="#EC4899" stroke-width="10" stroke-linecap="round"/>
  <circle cx="248" cy="216" r="16" fill="#EC4899"/>
  <circle cx="328" cy="256" r="12" fill="#F472B6"/>
  <circle cx="440" cy="296" r="14" fill="#EC4899"/>
  <path d="M168 176l40-56h312l40 56" stroke="#EC4899" stroke-width="10" stroke-linecap="round" stroke-linejoin="round"/>
  <path d="M360 96v48" stroke="#EC4899" stroke-width="12" stroke-linecap="round"/>
  <rect x="328" y="72" width="64" height="24" rx="12" fill="#F472B6"/>
  <rect x="552" y="192" width="64" height="160" rx="16" fill="#FFE4F5" stroke="#EC4899" stroke-width="4"/>
  <path d="M568 220h32" stroke="#EC4899" stroke-width="8" stroke-linecap="round"/>
  <path d="M568 244h32" stroke="#EC4899" stroke-width="8" stroke-linecap="round"/>
  <path d="M568 268h32" stroke="#EC4899" stroke-width="8" stroke-linecap="round"/>
  <path d="M568 292h32" stroke="#EC4899" stroke-width="8" stroke-linecap="round"/>
  <path d="M568 316h32" stroke="#EC4899" stroke-width="8" stroke-linecap="round"/>
  <path d="M128 304h-24" stroke="#EC4899" stroke-width="12" stroke-linecap="round"/>
  <path d="M104 304v-88" stroke="#EC4899" stroke-width="12" stroke-linecap="round"/>
  <rect x="80" y="216" width="48" height="32" rx="12" fill="#F472B6"/>
</svg>