<svg width="420" height="320" viewBox="0 0 420 320" fill="none" xmlns="http://www.w3.org/2000/svg">
  <rect width="420" height="320" fill="none"/>
  <g stroke="#C9CCD3" stroke-width="8" stroke-linecap="round" stroke-linejoin="round" fill="none">
    <rect x="40" y="28" width="200" height="264" rx="28"/>
    <rect x="72" y="60" width="136" height="56" rx="18"/>
    <line x1="88" y1="140" x2="176" y2="140"/>
    <line x1="88" y1="172" x2="192" y2="172"/>
    <line x1="88" y1="204" x2="160" y2="204"/>
    <line x1="88" y1="236" x2="144" y2="236"/>
    <line x1="152" y1="236" x2="192" y2="236"/>
    <rect x="224" y="96" width="156" height="96" rx="22"/>
    <path d="M224 132h156"/>
    <path d="M224 156h156"/>
    <path d="M224 180h156"/>
  </g>
  <g stroke="#D9DCE3" stroke-width="6" stroke-linecap="round" stroke-linejoin="round" fill="none">
    <path d="M44 288c36-28 84-40 136-24 42 12 80 8 120-8 32-13 68-16 104-8"/>
    <path d="M372 248c12 12 20 28 20 48"/>
    <path d="M340 252c10 10 18 26 18 44"/>
  </g>
</svg>